<?xml version="1.0" encoding="UTF-8" standalone="no"?>
<!-- Generator: Adobe Illustrator 16.0.3, SVG Export Plug-In . SVG Version: 6.00 Build 0)  -->

<svg
   xmlns:dc="http://purl.org/dc/elements/1.1/"
   xmlns:cc="http://creativecommons.org/ns#"
   xmlns:rdf="http://www.w3.org/1999/02/22-rdf-syntax-ns#"
   xmlns:svg="http://www.w3.org/2000/svg"
   xmlns="http://www.w3.org/2000/svg"
   xmlns:sodipodi="http://sodipodi.sourceforge.net/DTD/sodipodi-0.dtd"
   xmlns:inkscape="http://www.inkscape.org/namespaces/inkscape"
   version="1.1"
   id="Ebene_1"
   x="0px"
   y="0px"
   width="510.448px"
   height="153.144px"
   viewBox="0 0 510.448 153.144"
   enable-background="new 0 0 510.448 153.144"
   xml:space="preserve"
   inkscape:version="0.91 r13725"
   sodipodi:docname="SK_Medienhaus_4c_2.svg"><metadata
     id="metadata274"><rdf:RDF><cc:Work
         rdf:about=""><dc:format>image/svg+xml</dc:format><dc:type
           rdf:resource="http://purl.org/dc/dcmitype/StillImage" /><dc:title /></cc:Work></rdf:RDF></metadata><defs
     id="defs272" /><sodipodi:namedview
     pagecolor="#ffffff"
     bordercolor="#666666"
     borderopacity="1"
     objecttolerance="10"
     gridtolerance="10"
     guidetolerance="10"
     inkscape:pageopacity="0"
     inkscape:pageshadow="2"
     inkscape:window-width="1452"
     inkscape:window-height="912"
     id="namedview270"
     showgrid="false"
     inkscape:zoom="2.471542"
     inkscape:cx="133.57261"
     inkscape:cy="71.920061"
     inkscape:window-x="237"
     inkscape:window-y="0"
     inkscape:window-maximized="0"
     inkscape:current-layer="Ebene_1" /><g
     id="g236"
     transform="translate(-32.308,-20)"><g
       id="g238"><path
         d="m 541.99,90.726 c -2.162,0.505 -4.587,-0.195 -6.501,-1.154 -8.357,-5.38 -13.978,-14.16 -18.762,-22.241 -1.467,-2.115 -1.974,-4.738 -3.891,-6.531 3.186,-1.091 6.186,-3.588 8.542,-6.345 3.578,-4.292 3.324,-11.598 0.838,-16.273 -3.826,-6.612 -11.426,-7.31 -18.385,-7.566 -6.888,0.445 -20.857,0.059 -20.857,0.059 l -0.015,1.128 c 0,0 3.144,0.346 4.483,0.863 1.081,0.964 1.404,2.24 1.529,3.714 l 0.186,47.868 c 0,1.738 0.077,3.205 -0.688,4.553 -1.219,1.607 -3.196,2.371 -5.304,2.309 l 0,1.023 20.208,-0.015 0.021,-1.135 c 0,0 -2.616,0 -3.577,-0.646 -1.903,-1.213 -2.549,-3.397 -2.549,-5.629 l -0.059,-21.607 c 2.411,0 4.852,-0.25 7.392,-0.373 0.892,1.467 1.733,3.006 2.486,4.542 4.857,8.144 8.817,17.047 17.297,22.937 5.038,3.021 11.992,2.95 17.667,1.413 -0.061,-0.313 0.262,-0.639 -0.061,-0.894 m -45.006,-30.36 0.008,-27.285 c 5.424,-0.514 11.15,-0.339 14.855,3.958 3.695,3.783 4.275,10.063 2.483,14.868 -2.998,6.985 -10.584,8.524 -17.346,8.459"
         id="path240"
         inkscape:connector-curvature="0"
         style="fill:#575756" /><path
         d="m 387.047,89.572 c -8.357,-5.383 -13.976,-14.16 -18.761,-22.241 -1.469,-2.111 -1.975,-4.738 -3.896,-6.534 3.19,-1.091 6.194,-3.585 8.55,-6.342 3.579,-4.292 3.325,-11.602 0.836,-16.273 -3.833,-6.612 -11.428,-7.31 -18.38,-7.569 -6.892,0.447 -20.864,0.061 -20.864,0.061 l -0.014,1.128 c 0,0 3.145,0.346 4.48,0.863 1.082,0.964 1.409,2.24 1.529,3.714 l 0.19,47.868 c 0,1.738 0.072,3.205 -0.689,4.557 -1.221,1.603 -3.198,2.367 -5.305,2.304 l 0,1.023 20.211,-0.015 0.017,-1.135 c 0,0 -2.618,0 -3.576,-0.643 -1.905,-1.217 -2.551,-3.401 -2.551,-5.633 l -0.059,-21.6 c 2.418,0 4.855,-0.256 7.393,-0.379 0.897,1.467 1.735,3.006 2.484,4.542 4.859,8.144 8.819,17.047 17.301,22.938 5.037,3.017 11.989,2.952 17.667,1.412 -0.062,-0.314 0.258,-0.636 -0.062,-0.895 -2.165,0.507 -4.587,-0.192 -6.501,-1.151 m -38.505,-29.206 0.007,-27.285 c 5.423,-0.514 11.152,-0.339 14.855,3.958 3.697,3.783 4.273,10.063 2.486,14.868 -3,6.985 -10.587,8.524 -17.348,8.459"
         id="path242"
         inkscape:connector-curvature="0"
         style="fill:#575756" /><path
         d="m 47.01,54.504 c -2.179,-1.598 -4.988,-3.063 -6.07,-5.754 -1.611,-3.618 -1.487,-8.413 1.397,-11.533 3.453,-3.505 9.208,-4.22 13.669,-2.23 3.783,1.46 6.722,4.877 6.971,9.081 1.208,-0.048 1.05,0.048 1.127,0.031 -0.953,-3.837 -0.806,-8.547 -1.127,-12.498 -0.183,-0.129 -0.32,-0.129 -0.438,0.062 -2.75,0.052 -5.075,-0.746 -7.71,-0.808 l -1.24,-0.15 c -7.355,-0.889 -14.384,2.292 -18.164,8.808 -2.542,4.536 -2.801,11.664 -0.059,16.199 5.691,9.252 17.067,9.446 23.145,18.251 1.919,3.579 1.724,7.99 -0.575,11.298 -3.131,4.283 -8.699,5.554 -13.748,4.081 -5.106,-1.078 -9.775,-5.931 -10.93,-10.898 -0.07,0 -0.705,-0.208 -0.95,0 0.574,4.399 1.02,9.052 1.078,13.518 l 0.386,-0.188 c 8.877,0.329 18.863,3.578 26.272,-2.175 5.364,-4.082 8.178,-10.146 7.155,-17.034 C 65.667,62.411 54.355,59.042 47.01,54.504"
         id="path244"
         inkscape:connector-curvature="0"
         style="fill:#575756" /><path
         d="m 465.445,87.838 c -4.49,0.834 -10.179,1.398 -14.521,-0.271 -1.911,-0.821 -3.776,-2.589 -3.717,-4.809 l 0.047,-20.652 c 0.076,0.164 8.561,-0.468 12.063,0.564 2.67,0.797 4.307,1.994 4.655,5.443 l 0.876,0.058 0,-15.149 c 0,0 -0.918,0.055 -1.289,0 0,0.952 -0.012,2.388 -0.414,3.352 -0.513,0.886 -1.681,1.393 -2.634,1.584 -4.318,0.729 -13.463,0.776 -13.258,0.649 l 0,-24.25 c 4.703,0.072 10.317,-0.567 14.733,1.146 2.935,1.023 3.586,4.351 4.272,6.643 0.33,-0.058 0.708,-0.058 1.021,-0.256 -0.691,-3.503 -1.207,-7.272 -1.075,-10.918 -10.865,-0.507 -33.188,-0.12 -33.188,-0.12 l 0,1.033 c 0,0 1.975,-0.024 3.062,0.493 1.504,0.711 2.732,1.601 2.872,3.126 l 0,51.05 c 0,0 -0.098,1.808 -1.614,3.081 -1.583,1.331 -3.146,1.851 -5.146,1.331 l 0.038,1.139 c 0.087,-0.071 37.608,0.067 37.608,0.067 l 0.64,0 c 0.397,-4.015 1.538,-8.173 2.305,-12.134 l -1.157,-0.24 c -0.308,3.436 -2.796,7.012 -6.179,8.04"
         id="path246"
         inkscape:connector-curvature="0"
         style="fill:#575756" /><path
         d="m 307.333,31.337 0.014,1.166 c -0.014,0.018 2.404,0.113 3.564,0.969 1.158,0.828 1.79,1.836 1.978,3.058 l 0,42.108 c -0.324,2.808 -1.385,5.295 -3.055,7.542 -4.673,4.519 -12.276,4.583 -17.899,1.899 -4.221,-2.036 -6.649,-6.633 -7.49,-10.957 l 0,-39.313 c 0.128,-1.4 0.075,-2.798 1.163,-3.972 1.122,-1.183 2.63,-1.477 3.97,-1.392 0.069,-0.39 -0.066,-1.21 -0.066,-1.21 l -18.675,0.125 0.041,1.085 c 0,0 2.141,0.075 3.22,0.766 1.285,0.811 2.13,1.912 2.195,3.197 0.134,10.908 -0.049,33.28 0,33.434 0.134,5.925 0.295,11.867 3.754,16.456 6.204,7.916 17.897,8.555 27.044,5.938 8.438,-3.195 12.326,-12.115 12.326,-20.806 l 0,-35.479 c 0,0 0.164,-1.115 0.51,-1.728 1.001,-1.721 2.852,-1.816 4.813,-1.703 l -0.026,-1.283 -17.381,0.1 z"
         id="path248"
         inkscape:connector-curvature="0"
         style="fill:#575756" /><path
         d="m 225.228,87.886 0,-49.818 c 0,0 -0.304,-2.965 0.806,-4.176 1.174,-1.292 2.406,-1.292 4.302,-1.128 l 0,-1.426 -17.848,0.023 c 0,0 0.161,1.085 0.044,1.171 1.482,0.245 2.455,0.013 3.523,0.95 0.98,0.869 1.436,2.316 1.384,3.048 l 0,47.536 c 0,0 0.203,3.144 -0.216,4.409 -0.81,2.473 -3.325,2.696 -5.595,2.811 l 0,1.017 c 5.878,-0.308 12.827,-0.065 19.026,0.122 l 0,-1.081 c -1.213,-0.249 -2.505,0.065 -3.663,-0.707 -1.076,-0.574 -1.446,-1.717 -1.763,-2.751"
         id="path250"
         inkscape:connector-curvature="0"
         style="fill:#575756" /><path
         d="m 116.189,33 c 0,0 2.513,-0.15 3.702,1.043 l -0.145,-0.232 c 0.827,0.827 1.093,2.072 1.156,3.229 l 0,37.904 -0.364,4.718 c -0.715,3.771 -3.257,7.981 -7.101,9.197 -4.92,2.035 -10.731,1.132 -14.838,-1.975 -4.278,-3.125 -5.237,-8.177 -5.063,-13.099 l 0,-36.63 c 0,-0.154 -0.068,-2.063 0.659,-3.05 1.001,-1.348 2.619,-1.499 4.055,-1.43 L 98.227,31.748 C 92.342,31.802 79.59,31.731 79.59,31.731 l 0,1.033 c 0,0 2.659,0.253 3.863,0.896 1.471,1.063 1.216,3.184 1.343,4.98 l 0.064,33.24 c 0.064,7.271 2.106,16.199 10.106,19.406 7.919,3.243 19.103,3.445 25.94,-2.427 5.064,-4.208 6.338,-10.466 6.528,-16.602 l 0,-35.218 c 0,0 0.067,-1.454 0.515,-2.233 0.921,-1.642 2.513,-2.395 4.375,-2.042 l 0,-0.962 -16.135,-0.058 0,1.256 z"
         id="path252"
         inkscape:connector-curvature="0"
         style="fill:#575756" /><path
         d="m 256.66,85.722 -16.63,-19.083 -6.714,-8.03 16.948,-21.887 c 1.333,-1.471 2.991,-2.554 4.795,-3.249 0.672,-0.523 3.183,-1.026 3.183,-1.026 l -0.052,-0.883 -17.201,0.052 0,1.235 c 0,0 2.623,0.366 3.51,1.378 1.544,1.851 -0.044,4.036 -0.945,5.627 l -17.64,23.091 0.509,0.512 13.852,16.781 7.825,8.938 c 5.058,5.554 13.741,3.947 20.381,2.87 -0.14,-0.453 -0.14,-0.897 -0.319,-1.284 -4.66,1.473 -8.187,-2.046 -11.502,-5.042"
         id="path254"
         inkscape:connector-curvature="0"
         style="fill:#575756" /><path
         d="m 99.661,28.2 c 1.921,0 3.475,-1.549 3.475,-3.461 0,-1.918 -1.554,-3.472 -3.475,-3.472 -1.925,0 -3.488,1.554 -3.488,3.472 0,1.912 1.563,3.461 3.488,3.461"
         id="path256"
         inkscape:connector-curvature="0"
         style="fill:#575756" /><path
         d="m 113.22,28.2 c 1.909,0 3.473,-1.549 3.473,-3.461 0,-1.918 -1.564,-3.472 -3.473,-3.472 -1.916,0 -3.475,1.554 -3.475,3.472 0,1.912 1.559,3.461 3.475,3.461"
         id="path258"
         inkscape:connector-curvature="0"
         style="fill:#575756" /><path
         d="m 172.156,31.802 -28.126,0 0.033,0.859 c 0,0 3.106,-0.062 4.556,1.06 1.481,1.166 2.319,2.551 2.136,4.333 0,0 0.099,44 0,44.094 -0.388,2.674 0.364,6.009 -2.123,7.725 -0.514,0.579 -1.371,1.242 -2.335,1.435 -0.77,0.139 -2.652,0.099 -2.652,0.099 l 0.021,1.131 29.064,-0.038 c 10.425,-0.133 19.946,-4.74 26.013,-13.797 5.944,-8.041 6.199,-21.313 1.533,-30.052 C 194.969,37.935 183.6,32.377 172.156,31.802 m 17.379,48.436 c -4.739,6.448 -11.687,8.748 -19.099,9.373 0,0.105 -6.725,0.659 -9.201,-0.849 -1.296,-0.8 -1.594,-1.878 -1.996,-3.362 l 0,-48.795 c 0.06,-0.596 -0.186,-1.608 0.514,-1.878 12.647,-1.392 26.399,2.052 31.704,14.504 4.287,9.369 4.22,22.46 -1.922,31.007"
         id="path260"
         inkscape:connector-curvature="0"
         style="fill:#575756" /><path
         d="m 415.268,90.26 c -0.899,-0.644 -1.601,-1.195 -1.646,-2.349 l 0,-1.759 0.015,0 -0.034,-47.889 0,-3.837 c 0.498,-2.477 5.244,-2.453 5.244,-2.453 l 0,-0.958 -19.147,0 0,1.194 c -0.07,0 2.664,-0.274 3.915,0.64 0.901,0.639 1.601,1.197 1.647,2.346 l 0,49.493 0.017,0.965 0,3.027 c -0.501,2.479 -5.244,2.457 -5.244,2.457 l 0,0.957 19.148,0 0,-1.197 c 0.072,-0.001 -2.666,0.273 -3.915,-0.637"
         id="path262"
         inkscape:connector-curvature="0"
         style="fill:#575756" /><path
         d="m 109.929,153.14 -3.993,-16.777 -1.261,-5.116 -0.239,-0.206 c -1.194,0.068 -1.33,0.068 -2.287,0.068 l -0.578,0 -0.238,0.172 0,0.681 0,0.406 -0.036,0.209 0,0.138 c -0.034,0.474 -0.034,0.92 -0.034,0.985 l -0.032,1.196 c 0,0.099 -0.035,0.476 -0.071,1.022 l -0.034,0.886 c -0.035,0.477 -0.035,0.817 -0.066,0.985 l 0,0.209 -0.035,1.09 -0.446,7.506 c -0.238,3.544 -0.375,5.622 -0.612,8.454 l 0.237,0.207 c 0.887,-0.034 1.027,-0.034 1.812,-0.069 l 0.237,-0.206 0,-0.337 0,-0.479 c 0,-1.125 0.24,-7.126 0.307,-8.593 0.034,-0.17 0.034,-0.272 0.034,-0.308 l 0.411,-12.822 3.513,15.275 0,0.038 0.034,0.03 0,0.106 c 0.033,0.17 0.103,0.373 0.137,0.51 l 0.341,1.535 0.474,1.908 c 0.411,1.806 0.512,2.184 0.755,3.204 l 0.234,0.207 c 0.957,-0.069 1.093,-0.069 1.842,-0.069 l 0.582,0 0.238,-0.206 0.441,-1.735 0.343,-1.264 0.204,-0.816 c 0.409,-1.501 0.718,-2.695 0.956,-3.649 l 3.99,-15.21 0.202,14.663 0.036,2.148 c 0.034,0.684 0.034,1.328 0.034,2.15 l 0,3.303 0,0.479 0.205,0.207 c 0.617,-0.034 0.955,-0.069 1.195,-0.069 l 0.171,0 0.167,0 0.515,0 0.203,-0.206 0,-0.235 -0.035,-0.312 -0.031,-0.305 -0.07,-1.633 -0.102,-1.848 -0.036,-0.712 -0.067,-0.957 c -0.034,-0.613 -0.034,-1.263 -0.034,-1.326 l -0.037,-0.615 c -0.065,-0.926 -0.065,-0.926 -0.065,-1.264 l -0.136,-5.56 -0.206,-7.573 -0.033,-1.395 -0.242,-0.206 c -1.158,0.068 -1.296,0.068 -2.216,0.068 l -0.579,0 -0.239,0.172 -1.775,6.41 -3.985,15.451 z m 40.031,0.271 -0.1,-7.604 -0.037,-2.318 2.8,-0.034 1.736,0 0.82,0 0.886,0.034 0.445,0 0.75,0 0.546,0.034 0.272,-0.205 c 0.032,-0.543 0.032,-0.681 0.103,-1.468 l -0.242,-0.167 c -0.918,0.03 -3,0.068 -5.25,0.068 l -2.866,0 c -0.034,-2.868 -0.067,-5.117 -0.067,-6.142 l -0.034,-2.797 2.08,0 c 3.171,0 3.444,0 6.546,0.103 l 0.207,-0.201 0,-0.104 c 0.034,-0.17 0.034,-0.243 0.034,-0.343 l 0,-0.238 0,-0.101 0,-0.175 c 0.033,-0.03 0.033,-0.101 0.033,-0.134 l 0.034,-0.274 0,-0.065 0,-0.034 0,-0.038 -0.168,-0.2 -2.149,0.063 c -0.547,0.038 -2.182,0.038 -3.342,0.038 l -1.159,0 c -0.242,0 -0.786,0 -1.571,-0.038 l -2.697,-0.03 -0.167,0.206 c 0.203,7.706 0.304,13.914 0.304,17.667 0,1.292 0,2.418 -0.03,2.626 l 0,0.203 0,1.193 0,0.817 0,0.581 -0.037,0.41 0,0.34 0.204,0.171 0.855,0 c 5.013,-0.069 5.899,-0.069 7.058,-0.069 l 1.568,0 1.264,0 0.203,-0.206 c 0.037,-0.509 0.037,-0.717 0.103,-1.531 l -0.203,-0.204 c -2.218,0.137 -3.479,0.167 -6.14,0.167 l -2.592,0 z m 35.433,1.844 0.171,0 0.273,-0.034 0.101,0 0.547,0 0.713,-0.035 1.23,0 0.137,0 1.569,0 c 3.478,0 5.899,-0.816 7.638,-2.522 2.253,-2.219 3.379,-5.658 3.379,-10.231 0,-4.197 -0.989,-7.331 -2.968,-9.244 -1.533,-1.495 -3.75,-2.18 -7.061,-2.18 l -0.649,0 c -2.045,0.063 -2.216,0.063 -2.758,0.063 l -0.718,0 -0.648,0 -1.229,0.038 -0.167,0.172 0,0.306 c 0.034,0.241 0.034,0.241 0.034,0.408 l 0,0.311 c 0,0.136 0,0.169 0.032,0.508 0.101,1.469 0.242,12.275 0.242,17.835 0,1.778 0,2.733 -0.037,4.4 l 0.169,0.205 z m 2.115,-1.776 c -0.035,-0.205 -0.035,-0.376 -0.035,-0.441 l 0,-0.103 0,-0.342 0,-0.408 c 0,-0.102 0,-0.516 -0.031,-1.128 -0.036,-0.643 -0.07,-2.521 -0.07,-4.125 l 0,-1.67 0,-2.285 c 0,-0.442 0,-1.501 -0.033,-2.964 l 0,-3.55 0,-1.91 c 0,-1.13 0,-1.13 0.033,-1.741 l 3.067,-0.065 c 1.331,-0.033 2.901,0.104 3.754,0.34 3.135,0.886 4.705,3.953 4.705,9.207 0,3.855 -0.953,7.266 -2.49,9.006 -1.296,1.464 -3.307,2.18 -6.07,2.18 l -2.83,0 z m 73.625,-0.068 -0.102,-7.604 -0.033,-2.318 2.797,-0.034 1.737,0 0.82,0 0.885,0.034 0.444,0 0.752,0 0.546,0.034 0.273,-0.205 c 0.034,-0.543 0.034,-0.681 0.101,-1.468 l -0.238,-0.167 c -0.922,0.03 -3.001,0.068 -5.253,0.068 l -2.864,0 c -0.034,-2.868 -0.067,-5.117 -0.067,-6.142 l -0.037,-2.797 2.082,0 c 3.173,0 3.446,0 6.551,0.103 l 0.202,-0.201 0,-0.104 c 0.036,-0.17 0.036,-0.243 0.036,-0.343 l 0,-0.238 0,-0.101 0,-0.175 c 0.033,-0.03 0.033,-0.101 0.033,-0.134 l 0.034,-0.274 0,-0.065 0,-0.034 0,-0.038 -0.167,-0.2 -2.152,0.063 c -0.542,0.038 -2.183,0.038 -3.342,0.038 l -1.159,0 c -0.238,0 -0.783,0 -1.568,-0.038 l -2.694,-0.03 -0.171,0.206 c 0.201,7.706 0.307,13.914 0.307,17.667 0,1.292 0,2.418 -0.036,2.626 l 0,0.203 0,1.193 0,0.817 0,0.58 -0.034,0.411 0,0.34 0.207,0.171 0.851,0 c 5.015,-0.069 5.902,-0.069 7.061,-0.069 l 1.57,0 1.261,0 0.204,-0.206 c 0.033,-0.509 0.033,-0.717 0.103,-1.531 l -0.207,-0.204 c -2.216,0.137 -3.478,0.167 -6.139,0.167 l -2.594,0 z m 37.001,-20.39 7.606,16.539 0.306,0.685 c 0.101,0.236 0.172,0.338 0.272,0.61 0.104,0.173 0.17,0.34 0.17,0.373 0.067,0.104 0.104,0.173 0.104,0.205 0.101,0.274 0.918,2.152 1.635,3.651 l 0.24,0.171 c 0.716,-0.069 1.604,-0.102 2.385,-0.102 l 0.549,0 0.201,-0.174 c -0.167,-6.001 -0.304,-14.051 -0.304,-18.214 l 0,-1.429 c 0,-2.25 0,-2.456 0.065,-4.091 l -0.166,-0.206 c -0.617,0.03 -0.957,0.068 -1.161,0.068 l -0.136,0 -0.17,0 -0.309,0 -0.17,0.172 c 0.138,5.387 0.204,7.435 0.272,11.697 l 0.206,10.403 -5.766,-12.555 -0.577,-1.193 c 0,-0.03 -0.036,-0.103 -0.103,-0.201 l -0.206,-0.479 c -0.067,-0.103 -0.104,-0.237 -0.202,-0.406 -0.378,-0.821 -0.649,-1.433 -0.888,-1.98 -0.821,-1.771 -1.639,-3.545 -2.491,-5.357 l -0.237,-0.168 c -1.095,0.03 -1.742,0.03 -2.046,0.068 l -0.818,0 -0.204,0.207 0.033,0.714 c 0.104,2.151 0.237,11.664 0.237,16.645 l 0,3.989 -0.033,2.385 0.203,0.207 c 0.442,-0.034 0.886,-0.069 1.161,-0.069 l 0.34,0 0.207,0 0.201,-0.206 -0.201,-8.215 -0.037,-3.585 -0.168,-10.159 z m 43.89,21.958 c -0.136,-3.272 -0.274,-8.248 -0.274,-9.717 l 0,-0.988 0,-0.136 0,-0.138 c 0.034,-0.58 0.034,-0.58 0.034,-0.718 l 0,-0.138 0,-0.103 c 2.625,-0.065 4.399,-0.1 5.901,-0.1 l 1.874,0 c 0,0 0.105,0 0.206,0.034 l 0.339,0 1.641,0 0,0.647 0.032,6.619 0,3 c 0,0.03 0,0.167 -0.032,0.375 l 0,0.577 0,0.852 0.203,0.207 c 0.684,-0.069 0.851,-0.069 1.534,-0.069 l 0.511,0 0.172,-0.206 c -0.205,-6.785 -0.272,-10.295 -0.272,-17.457 l 0,-5.424 0.035,-0.853 -0.207,-0.206 c -0.952,0.068 -1.059,0.068 -1.737,0.068 l -0.309,0 -0.202,0.172 0.066,1.635 0.035,1.669 c 0.035,0.615 0.035,1.16 0.101,3.786 l 0,0.718 0,0.683 c 0,0.033 0,0.206 0.035,0.41 l 0,0.543 0,0.239 0,0.172 c -2.728,0.068 -4.57,0.101 -6.069,0.101 l -0.581,0 -1.262,0 c -0.375,-0.032 -0.613,-0.032 -0.647,-0.032 l -1.4,0 0,-3.004 0,-2.488 c 0.034,-0.781 0.034,-1.328 0.034,-1.497 l 0,-2.968 -0.204,-0.206 c -1.023,0.03 -1.16,0.03 -2.045,0.068 l -0.207,0.172 c 0.207,4.091 0.311,10.569 0.311,17.458 0,1.81 0,3.242 -0.036,3.514 l 0,0.243 0,0.851 0,0.239 0,0.305 -0.034,0.616 0,0.542 0.203,0.207 c 0.615,-0.034 0.96,-0.069 1.197,-0.069 l 0.168,0 0.171,0 0.513,0 0.202,-0.205 z m 41.877,-7.807 7.606,0 0.17,0.612 0.068,0.243 0.069,0.236 c 0.478,1.843 0.543,2.151 0.852,3.406 0.068,0.346 0.068,0.378 0.239,0.958 0.03,0.242 0.067,0.308 0.202,0.852 0.071,0.342 0.071,0.342 0.104,0.479 l 0.07,0.238 c 0.065,0.341 0.138,0.613 0.202,0.819 l 0.205,0.205 1.195,-0.035 0.918,-0.032 0.172,-0.207 c -1.228,-4.092 -2.182,-7.432 -2.49,-8.626 -0.17,-0.616 -0.376,-1.262 -0.548,-1.909 l -2.182,-7.573 c -0.511,-1.737 -1.089,-3.854 -1.295,-4.774 -0.033,-0.135 -0.067,-0.236 -0.067,-0.272 l -0.17,-0.545 -0.205,-0.206 c -1.191,0.03 -1.366,0.03 -2.424,0.068 l -0.237,0.172 -0.036,0.203 -0.064,0.209 -0.205,0.71 -0.104,0.41 c -0.03,0.208 -0.066,0.274 -0.101,0.375 0,0.138 -0.037,0.206 -0.137,0.617 l -0.204,0.645 c -0.104,0.407 -0.273,0.956 -0.444,1.567 -0.168,0.48 -0.168,0.514 -0.374,1.264 l -2.765,9.892 c -0.647,2.285 -1.058,3.786 -1.295,4.498 -0.133,0.516 -0.202,0.756 -0.987,3.31 l 0.169,0.206 0.412,0 c 0,0 0.066,0 0.168,-0.032 l 0.443,0 c 0.31,0 0.614,0 0.886,0.032 l 0.238,-0.206 0.037,-0.203 c 0.169,-0.887 0.476,-2.148 0.611,-2.692 0.377,-1.366 0.546,-2.048 0.613,-2.353 0.138,-0.647 0.242,-0.993 0.309,-1.263 l 0.376,-1.298 z m 7.094,-1.772 -0.406,0 -0.618,0 c -0.168,0 -0.511,0 -1.023,0.033 l -0.85,0 -0.409,0 c -1.162,0 -1.399,0 -3.343,-0.033 l 3.275,-12.313 3.374,12.313 z m 44.811,-14.154 -0.203,-0.206 c -0.923,0.03 -1.023,0.03 -1.844,0.068 l -0.204,0.207 c 0.138,3.679 0.204,7.432 0.204,11.694 0,4.47 -0.136,6.173 -0.546,7.471 -0.715,2.113 -2.387,3.272 -4.638,3.272 -3.341,0 -4.91,-2.389 -4.91,-7.535 l 0,-0.684 c 0.036,-5.796 0.07,-9.037 0.103,-9.718 0.033,-1.403 0.033,-2.354 0.033,-2.629 0,-0.44 0,-0.577 0.035,-0.82 l 0,-0.166 0,-0.478 c 0,-0.138 0,-0.306 0.034,-0.478 l -0.205,-0.206 c -1.058,0.03 -1.228,0.03 -2.146,0.068 l -0.173,0.172 0.037,0.511 0,0.683 0,0.407 0.03,0.818 0,0.75 0,1.533 0,9.486 c 0,0.03 0,0.102 -0.03,0.133 l 0,0.035 0,0.238 0,0.205 0,0.069 0,0.646 c 0,0 0,0.104 0.03,0.241 l 0,0.135 c 0,1.702 0.205,3.208 0.617,4.296 0.986,2.592 3.374,4.125 6.444,4.125 2.93,0 5.284,-1.465 6.443,-4.022 0.582,-1.262 0.819,-2.97 0.819,-5.866 l 0,-0.406 0,-0.376 0,-4.4 0,-1.639 0,-0.577 0.035,-0.581 0.033,-5.971 0,-0.505 z m 27.112,23.123 c 1.331,0.816 3.035,1.261 4.837,1.261 4.133,0 6.724,-2.56 6.724,-6.618 0,-3.102 -1.197,-4.771 -5.082,-7.192 -3.58,-2.252 -4.398,-3.242 -4.398,-5.357 0,-2.455 1.669,-4.06 4.228,-4.06 1.564,0 2.73,0.479 3.887,1.644 l 0.24,-0.107 c 0.066,-0.646 0.066,-0.887 0.204,-1.875 l -0.138,-0.34 c -1.5,-0.716 -2.727,-1.023 -4.296,-1.023 -3.888,0 -6.308,2.387 -6.308,6.138 0,2.555 0.986,3.886 4.398,6.14 l 1.569,1.023 c 2.558,1.669 3.544,3.137 3.544,5.22 0,2.863 -1.808,4.703 -4.634,4.703 -1.844,0 -3.243,-0.649 -4.438,-2.045 l -0.305,0.064 -0.104,1.061 -0.066,0.476 -0.035,0.548 0.173,0.339 z"
         id="path264"
         inkscape:connector-curvature="0"
         style="fill:#0069b4" /></g><line
       x1="229.53799"
       y1="112.589"
       x2="229.53799"
       y2="136.83299"
       id="line266"
       style="fill:none;stroke:#575756;stroke-width:2.16100001" /><path
       d="m 229.538,141.751 0,1.729 m 0,4.916 0,24.243"
       id="path268"
       inkscape:connector-curvature="0"
       style="fill:none;stroke:#0069b4;stroke-width:2.16100001" /></g></svg>